PathFileType	4	(X/Y/Z)	C:/Users/beibeiliu/ov580/test_trc\sequence.27_training_dense_left.trc
DataRate	CameraRate	NumFrames	NumMarkers	Units	OrigDataRate	OrigDataStartFrame	OrigNumFrames
120	120	10	19	mm	120	1	56
Frame#	Time	ThumbCMC			ThumbMCP			ThumbIP			ThumbTip			IndexMCP			IndexPIP			IndexTip			MiddleMCP			MiddlePIP			MiddleTip			RingMCP			RingPIP			RingTip			PinkyMCP			PinkyPIP			PinkyTip			BackHand1			BackHand2			BackHand3	
		X0	Y0	Z0	X1	Y1	Z1	X2	Y2	Z2	X3	Y3	Z3	X4	Y4	Z4	X5	Y5	Z5	X6	Y6	Z6	X7	Y7	Z7	X8	Y8	Z8	X9	Y9	Z9	X10	Y10	Z10	X11	Y11	Z11	X12	Y12	Z12	X13	Y13	Z13	X14	Y14	Z14	X15	Y15	Z15	X16	Y16	Z16	X17	Y17	Z17	X18	Y18	Z18	
0	0	-232.279	63.4958	145.213	-227.619	80.3666	125.166	-232.235	100.166	105.548	-235.901	113.488	83.9011	-237.163	59.97	69.3377	-206.513	57.8243	66.1592	-208.741	51.1945	102.863	-233.795	40.8329	65.1735	-202.013	37.8933	70.8008	-208.924	36.0128	107.407	-232.7	23.9041	62.8316	-204.706	23.7098	68.6356	-207.704	25.085	103.247	-248.207	-4.32482	66.1927	-239.334	-6.43788	48.006	-229.132	-5.263	22.4295	-265.663	14.6958	110.644	-259.579	8.17726	145.889	-260.095	41.8497	132.657	
1	0.00833333	-195.396	58.2698	143.809	-182.055	72.2085	126.262	-176.928	88.0142	108.035	-169.052	107.045	91.4468	-201.127	61.6595	69.6305	-177.34	40.2789	68.7165	-185.593	36.9667	102.671	-207.671	44.2614	64.1584	-185.156	26.1817	67.2868	-190.64	24.4492	106.242	-220.922	26.2021	63.4132	-193.651	14.4732	69.9721	-197.243	17.4799	107.758	-244.166	15.8784	70.3742	-236.218	6.9645	43.1209	-229.923	1.67587	22.7945	-250.228	34.4914	114.655	-248.181	29.99	144.452	-229	57.4151	132.583	
2	0.0166667	-164.782	46.372	147.029	-148.193	52.0829	130.24	-130.865	70.5806	111.178	-120.269	79.653	100.801	-161.675	52.2046	70.5091	-154.947	25.5546	69.0247	-159.197	21.4796	102.036	-184.551	41.0571	66.667	-167.839	13.7429	69.3738	-170.586	13.9985	105.938	-196.928	32.0049	67.3519	-178.719	4.73167	76.136	-183.414	8.98884	108.951	-227.125	26.9076	69.456	-221.642	14.5899	46.6937	-213.209	5.18725	26.023	-225.249	48.1235	114.956	-223.406	41.6514	144.844	-197.489	58.4766	136.158	
3	0.025	-139.606	37.0208	148.321	-124.019	36.519	133.425	-104.347	47.8615	118.994	-88.9011	55.1103	110.839	-138.095	33.1318	74.8497	-129.565	4.27104	79.1805	-144.612	5.79919	106.362	-157.839	27.9663	71.8517	-148.273	-4.24852	77.7429	-155.747	1.68484	112.322	-171.589	17.6291	69.8833	-161.642	-10.0817	81.7818	-163.163	-4.34759	111.77	-200.005	21.3459	73.8057	-196.405	7.76458	50.2582	-191.619	-8.19535	30.1486	-197.927	43.5833	113.372	-204.727	38.6465	144.358	-170.552	51.8873	135.504	
4	0.0333333	-130.517	24.9311	156.35	-107.67	26.8574	139.794	-86.7338	36.15	129.711	-69.5347	43.6044	119.417	-117.787	19.2934	83.5605	-111.461	-10.6938	85.9241	-123.735	-5.61006	118.2	-134.214	6.76341	74.9105	-127.119	-19.6629	91.1515	-136.7	-9.61402	120.806	-156.673	-2.82159	75.9943	-141.344	-25.9535	93.3177	-150.17	-12.1457	122.316	-184.517	-0.386903	74.5049	-174.34	-12.2823	57.0664	-166.393	-33.0278	39.1953	-183.038	30.9293	114.493	-185.494	30.7455	144.882	-156.489	39.5736	136.93	
5	0.0416667	-128.157	29.599	155.897	-107.446	32.7049	144.536	-87.6431	45.0583	129	-70.2853	55.0879	121.672	-108.345	17.6782	90.7613	-100.041	-12.4504	99.6413	-113.646	-3.97469	126.299	-124.938	-2.35791	82.3764	-110.435	-22.7476	99.4508	-128.044	-10.4298	128.587	-141.311	-14.8953	82.8754	-125.663	-32.8181	105.136	-137.427	-18.3507	130.03	-166.793	-15.9701	79.0359	-154.372	-29.6548	65.9663	-137.813	-51.4995	55.1753	-175.8	19.2748	117.924	-185.081	18.9705	145.094	-153.508	36.5257	138.687	
6	0.05	-142.569	45.8397	154.932	-123.228	55.5264	142.799	-109.687	66.3624	128.941	-97.9463	80.5088	115.092	-110.145	26.4877	90.9442	-90.8605	12.8781	104.152	-112.56	10.7359	130.388	-118.464	5.01918	87.1795	-98.7654	-4.90704	105.548	-122.329	3.19422	136.158	-128.899	-7.05519	90.4584	-109.561	-19.2092	112.79	-129.992	-3.66383	138.35	-150.179	-27.0551	85.6327	-126.941	-37.4721	75.2291	-105.281	-48.2687	69.8257	-175.76	9.0814	117.513	-190.761	8.00301	143.821	-170.097	35.0847	134.742	
7	0.0583333	-167.054	49.764	153.309	-151.378	64.2513	138.216	-143.384	82.3996	115.889	-137.796	97.0145	105.029	-122.674	40.282	89.4924	-99.3965	36.4859	109.493	-119.465	27.252	131.551	-119.346	17.3372	89.8005	-99.3708	16.5924	110.72	-128.195	21.8724	137.421	-122.092	0.816106	94.6356	-103.514	-0.952494	120.726	-128.542	5.69296	140.797	-131.283	-26.8072	91.1034	-110.518	-26.6282	86.3942	-80.4006	-27.2222	81.4771	-175.81	-7.7008	116.984	-189.809	-5.98692	141.572	-183.225	28.6946	129.139	
8	0.0666667	-186.798	43.4549	144.071	-178.213	60.4918	126.739	-175.593	74.1456	106.391	-176.384	90.63	87.4998	-143.054	42.848	84.7103	-117.772	51.1422	104.439	-139.279	43.2991	129.214	-131.995	23.3217	87.4666	-110.463	32.3732	112.128	-137.97	28.9102	134.277	-122.284	7.64419	95.2157	-108.072	18.8089	120.224	-138.588	18.9155	137.726	-125.631	-22.3972	99.4216	-104.093	-14.8567	91.1065	-76.1275	-6.94097	84.9129	-171.461	-14.4076	117.947	-186.989	-18.3716	146.601	-191.312	13.4122	128.052	
9	0.075	-200.529	31.283	141.607	-201.707	52.2524	121.027	-205.483	64.2144	100.895	-204.221	73.9325	82.108	-160.013	39.9578	78.4388	-137.184	54.024	90.6808	-150.841	44.0257	121.923	-143.173	25.9528	81.5461	-127.285	44.4535	101.41	-149.48	33.5225	127.579	-131.43	15.0254	89.99	-117.192	29.557	112.999	-145.283	22.4933	133.278	-127.772	-14.1506	98.1312	-103.027	-3.58488	88.134	-83.6355	11.2007	80.4342	-168.801	-22.9564	119.784	-182.391	-25.4621	144.342	-198.145	1.63169	127.326	
